<svg xmlns="http://www.w3.org/2000/svg" width="840" height="220" viewBox="0 0 840 220" role="img" aria-label="Animação: dino correndo, pulando cactos e evoluindo de cinza para âmbar">
<defs><style>text{font-family:ui-monospace,'SFMono-Regular',Menlo,'Courier New',monospace;}</style><radialGradient id="aura" cx="0.5" cy="0.5" r="0.5"><stop offset="0" stop-color="#E0A458" stop-opacity="0.45"/><stop offset="1" stop-color="#E0A458" stop-opacity="0"/></radialGradient></defs>
<rect x="2" y="2" width="836" height="216" rx="16" fill="#0f0f11" stroke="#ffffff" stroke-opacity="0.08"/>
<text x="28" y="36" fill="#8a857b" font-size="14" letter-spacing="2">runtime :: joão.exe</text>
<text x="700" y="40" fill="#8a857b" font-size="14" letter-spacing="2">HI</text>
<text x="812" y="40" fill="#ecb978" font-size="14" letter-spacing="2" text-anchor="end" opacity="0">00128<animate attributeName="opacity" dur="9.0s" repeatCount="indefinite" calcMode="discrete" keyTimes="0.0000;0.1667;0.3333;0.5000;0.6667;0.8333" values="1;0;0;0;0;0"/></text>
<text x="812" y="40" fill="#ecb978" font-size="14" letter-spacing="2" text-anchor="end" opacity="0">00256<animate attributeName="opacity" dur="9.0s" repeatCount="indefinite" calcMode="discrete" keyTimes="0.0000;0.1667;0.3333;0.5000;0.6667;0.8333" values="0;1;0;0;0;0"/></text>
<text x="812" y="40" fill="#ecb978" font-size="14" letter-spacing="2" text-anchor="end" opacity="0">00384<animate attributeName="opacity" dur="9.0s" repeatCount="indefinite" calcMode="discrete" keyTimes="0.0000;0.1667;0.3333;0.5000;0.6667;0.8333" values="0;0;1;0;0;0"/></text>
<text x="812" y="40" fill="#ecb978" font-size="14" letter-spacing="2" text-anchor="end" opacity="0">00512<animate attributeName="opacity" dur="9.0s" repeatCount="indefinite" calcMode="discrete" keyTimes="0.0000;0.1667;0.3333;0.5000;0.6667;0.8333" values="0;0;0;1;0;0"/></text>
<text x="812" y="40" fill="#ecb978" font-size="14" letter-spacing="2" text-anchor="end" opacity="0">00640<animate attributeName="opacity" dur="9.0s" repeatCount="indefinite" calcMode="discrete" keyTimes="0.0000;0.1667;0.3333;0.5000;0.6667;0.8333" values="0;0;0;0;1;0"/></text>
<text x="812" y="40" fill="#ecb978" font-size="14" letter-spacing="2" text-anchor="end" opacity="0">00777<animate attributeName="opacity" dur="9.0s" repeatCount="indefinite" calcMode="discrete" keyTimes="0.0000;0.1667;0.3333;0.5000;0.6667;0.8333" values="0;0;0;0;0;1"/></text>
<g opacity="0.1" fill="#ffffff"><ellipse cx="300" cy="70" rx="26" ry="10"/><ellipse cx="320" cy="64" rx="18" ry="9"/><ellipse cx="282" cy="68" rx="14" ry="8"/><animateTransform attributeName="transform" type="translate" from="40 0" to="-900 0" dur="26s" repeatCount="indefinite"/></g>
<g opacity="0.07" fill="#ffffff"><ellipse cx="620" cy="95" rx="26" ry="10"/><ellipse cx="640" cy="89" rx="18" ry="9"/><ellipse cx="602" cy="93" rx="14" ry="8"/><animateTransform attributeName="transform" type="translate" from="40 0" to="-900 0" dur="34s" repeatCount="indefinite"/></g>
<line x1="24" y1="170" x2="816" y2="170" stroke="#ffffff" stroke-opacity="0.18" stroke-width="2"/>
<line x1="24" y1="178" x2="816" y2="178" stroke="#8a857b" stroke-opacity="0.5" stroke-width="2" stroke-dasharray="3 17"><animate attributeName="stroke-dashoffset" from="0" to="-20" dur="0.45s" repeatCount="indefinite"/></line>
<g transform="translate(800,170)"><rect x="-4.0" y="-34.0" width="8.0" height="34.0" rx="2" fill="#6b655b"/><rect x="-11.0" y="-24.0" width="5.0" height="14.0" rx="2" fill="#6b655b"/><rect x="-11.0" y="-24.0" width="5.0" height="4.0" fill="#6b655b"/><rect x="6.0" y="-28.0" width="5.0" height="16.0" rx="2" fill="#6b655b"/><animateTransform attributeName="transform" type="translate" values="800 170;-60 170" dur="9.0s" begin="0.0s" repeatCount="indefinite"/></g>
<g transform="translate(800,170)"><rect x="-3.2" y="-27.200000000000003" width="6.4" height="27.200000000000003" rx="2" fill="#6b655b"/><rect x="-8.8" y="-19.200000000000003" width="4.0" height="11.200000000000001" rx="2" fill="#6b655b"/><rect x="-8.8" y="-19.200000000000003" width="4.0" height="3.2" fill="#6b655b"/><rect x="4.800000000000001" y="-22.400000000000002" width="4.0" height="12.8" rx="2" fill="#6b655b"/><animateTransform attributeName="transform" type="translate" values="800 170;-60 170" dur="9.0s" begin="-3.0s" repeatCount="indefinite"/></g>
<g transform="translate(800,170)"><rect x="-4.6" y="-39.099999999999994" width="9.2" height="39.099999999999994" rx="2" fill="#6b655b"/><rect x="-12.649999999999999" y="-27.599999999999998" width="5.75" height="16.099999999999998" rx="2" fill="#6b655b"/><rect x="-12.649999999999999" y="-27.599999999999998" width="5.75" height="4.6" fill="#6b655b"/><rect x="6.8999999999999995" y="-32.199999999999996" width="5.75" height="18.4" rx="2" fill="#6b655b"/><animateTransform attributeName="transform" type="translate" values="800 170;-60 170" dur="9.0s" begin="-6.0s" repeatCount="indefinite"/></g>
<g><animateTransform attributeName="transform" type="translate" dur="9.0s" repeatCount="indefinite" keyTimes="0;0.106;0.156;0.206;0.439;0.489;0.539;0.772;0.822;0.872;1" values="0 0;0 0;0 -54;0 0;0 0;0 -54;0 0;0 0;0 -54;0 0;0 0"/><ellipse cx="105" cy="136" rx="62" ry="50" fill="url(#aura)" opacity="0"><animate attributeName="opacity" dur="9.0s" repeatCount="indefinite" keyTimes="0;0.489;0.549;1" values="0;0;0.9;0.9"/></ellipse><g opacity="1"><rect x="98" y="148" width="9" height="22" rx="1" fill="#E0A458"/><rect x="98" y="166" width="14" height="4" fill="#E0A458"/><rect x="116" y="148" width="9" height="13" rx="1" fill="#E0A458"/><rect x="116" y="157" width="14" height="4" fill="#E0A458"/><animate attributeName="opacity" values="1;1;0;0" keyTimes="0;0.49;0.5;1" dur="0.36s" repeatCount="indefinite"/></g><g opacity="0"><rect x="98" y="148" width="9" height="13" rx="1" fill="#E0A458"/><rect x="98" y="157" width="14" height="4" fill="#E0A458"/><rect x="116" y="148" width="9" height="22" rx="1" fill="#E0A458"/><rect x="116" y="166" width="14" height="4" fill="#E0A458"/><animate attributeName="opacity" values="0;0;1;1" keyTimes="0;0.49;0.5;1" dur="0.36s" repeatCount="indefinite"/></g><path d="M 60 140 L 92 122 L 116 112 L 140 110 L 152 118 L 152 126 L 140 128 L 124 130 L 122 148 L 124 150 L 94 150 L 80 144 Z" stroke="#0f0f11" stroke-width="1"><animate attributeName="fill" dur="9.0s" repeatCount="indefinite" keyTimes="0;0.156;0.216;0.489;0.549;1" values="#6b655b;#6b655b;#E0A458;#E0A458;#ecb978;#ecb978"/></path><rect x="134" y="116" width="5" height="5" fill="#0f0f11"/><rect x="118" y="136" width="9" height="4" rx="2" fill="#E0A458"/><g opacity="0"><path d="M 90 125 L 96 113 L 102 125 Z" fill="#ecb978"/><path d="M 106 118 L 112 106 L 118 118 Z" fill="#ecb978"/><path d="M 122 115 L 128 103 L 134 115 Z" fill="#ecb978"/><animate attributeName="opacity" dur="9.0s" repeatCount="indefinite" keyTimes="0;0.156;0.216;1" values="0;0;1;1"/></g></g>
</svg>