<svg xmlns="http://www.w3.org/2000/svg" width="840" height="220" viewBox="0 0 840 220" role="img" aria-label="Pixel-art animado: dino correndo, pulando cactos e evoluindo de cinza para âmbar">
<defs><style>text{font-family:ui-monospace,'SFMono-Regular',Menlo,'Courier New',monospace;}</style><radialGradient id="aura" cx="0.5" cy="0.5" r="0.5"><stop offset="0" stop-color="#E0A458" stop-opacity="0.45"/><stop offset="1" stop-color="#E0A458" stop-opacity="0"/></radialGradient></defs>
<rect x="2" y="2" width="836" height="216" rx="16" fill="#0f0f11" stroke="#ffffff" stroke-opacity="0.08"/>
<text x="28" y="36" fill="#8a857b" font-size="14" letter-spacing="2">runtime :: joão.exe</text>
<text x="700" y="40" fill="#8a857b" font-size="14" letter-spacing="2">HI</text>
<text x="812" y="40" fill="#ecb978" font-size="14" letter-spacing="2" text-anchor="end" opacity="0">00128<animate attributeName="opacity" dur="9.0s" repeatCount="indefinite" calcMode="discrete" keyTimes="0.0000;0.1667;0.3333;0.5000;0.6667;0.8333" values="1;0;0;0;0;0"/></text>
<text x="812" y="40" fill="#ecb978" font-size="14" letter-spacing="2" text-anchor="end" opacity="0">00256<animate attributeName="opacity" dur="9.0s" repeatCount="indefinite" calcMode="discrete" keyTimes="0.0000;0.1667;0.3333;0.5000;0.6667;0.8333" values="0;1;0;0;0;0"/></text>
<text x="812" y="40" fill="#ecb978" font-size="14" letter-spacing="2" text-anchor="end" opacity="0">00384<animate attributeName="opacity" dur="9.0s" repeatCount="indefinite" calcMode="discrete" keyTimes="0.0000;0.1667;0.3333;0.5000;0.6667;0.8333" values="0;0;1;0;0;0"/></text>
<text x="812" y="40" fill="#ecb978" font-size="14" letter-spacing="2" text-anchor="end" opacity="0">00512<animate attributeName="opacity" dur="9.0s" repeatCount="indefinite" calcMode="discrete" keyTimes="0.0000;0.1667;0.3333;0.5000;0.6667;0.8333" values="0;0;0;1;0;0"/></text>
<text x="812" y="40" fill="#ecb978" font-size="14" letter-spacing="2" text-anchor="end" opacity="0">00640<animate attributeName="opacity" dur="9.0s" repeatCount="indefinite" calcMode="discrete" keyTimes="0.0000;0.1667;0.3333;0.5000;0.6667;0.8333" values="0;0;0;0;1;0"/></text>
<text x="812" y="40" fill="#ecb978" font-size="14" letter-spacing="2" text-anchor="end" opacity="0">00777<animate attributeName="opacity" dur="9.0s" repeatCount="indefinite" calcMode="discrete" keyTimes="0.0000;0.1667;0.3333;0.5000;0.6667;0.8333" values="0;0;0;0;0;1"/></text>
<g opacity="0.1" fill="#ffffff"><ellipse cx="300" cy="70" rx="26" ry="9"/><ellipse cx="320" cy="65" rx="17" ry="8"/><ellipse cx="283" cy="68" rx="13" ry="7"/><animateTransform attributeName="transform" type="translate" from="40 0" to="-900 0" dur="26s" repeatCount="indefinite"/></g>
<g opacity="0.07" fill="#ffffff"><ellipse cx="620" cy="95" rx="26" ry="9"/><ellipse cx="640" cy="90" rx="17" ry="8"/><ellipse cx="603" cy="93" rx="13" ry="7"/><animateTransform attributeName="transform" type="translate" from="40 0" to="-900 0" dur="34s" repeatCount="indefinite"/></g>
<line x1="24" y1="170" x2="816" y2="170" stroke="#ffffff" stroke-opacity="0.18" stroke-width="2"/>
<line x1="24" y1="178" x2="816" y2="178" stroke="#8a857b" stroke-opacity="0.5" stroke-width="2" stroke-dasharray="3 17"><animate attributeName="stroke-dashoffset" from="0" to="-20" dur="0.45s" repeatCount="indefinite"/></line>
<g transform="translate(800,170)"><rect x="-4" y="-34" width="8" height="34" rx="2" fill="#6b655b"/><rect x="-11" y="-24" width="5" height="14" rx="2" fill="#6b655b"/><rect x="6" y="-28" width="5" height="16" rx="2" fill="#6b655b"/><animateTransform attributeName="transform" type="translate" values="800 170;-60 170" dur="9.0s" begin="0.0s" repeatCount="indefinite"/></g>
<g transform="translate(800,170)"><rect x="-3" y="-27" width="6" height="27" rx="2" fill="#6b655b"/><rect x="-9" y="-19" width="4" height="11" rx="2" fill="#6b655b"/><rect x="5" y="-22" width="4" height="13" rx="2" fill="#6b655b"/><animateTransform attributeName="transform" type="translate" values="800 170;-60 170" dur="9.0s" begin="-3.0s" repeatCount="indefinite"/></g>
<g transform="translate(800,170)"><rect x="-5" y="-39" width="9" height="39" rx="2" fill="#6b655b"/><rect x="-13" y="-28" width="6" height="16" rx="2" fill="#6b655b"/><rect x="7" y="-32" width="6" height="18" rx="2" fill="#6b655b"/><animateTransform attributeName="transform" type="translate" values="800 170;-60 170" dur="9.0s" begin="-6.0s" repeatCount="indefinite"/></g>
<g><animateTransform attributeName="transform" type="translate" dur="9.0s" repeatCount="indefinite" keyTimes="0;0.106;0.156;0.206;0.439;0.489;0.539;0.772;0.822;0.872;1" values="0 0;0 0;0 -54;0 0;0 0;0 -54;0 0;0 0;0 -54;0 0;0 0"/><ellipse cx="108" cy="144" rx="58" ry="48" fill="url(#aura)" opacity="0"><animate attributeName="opacity" dur="9.0s" repeatCount="indefinite" keyTimes="0;0.489;0.549;1" values="0;0;0.9;0.9"/></ellipse><g fill="#6b655b"><animate attributeName="fill" dur="9.0s" repeatCount="indefinite" keyTimes="0;0.156;0.216;0.489;0.549;1" values="#6b655b;#6b655b;#E0A458;#E0A458;#ecb978;#ecb978"/><rect x="112.6" y="120.6" width="18.7" height="3.1"/><rect x="112.6" y="123.2" width="18.7" height="3.1"/><rect x="112.6" y="125.8" width="5.7" height="3.1"/><rect x="120.4" y="125.8" width="10.9" height="3.1"/><rect x="112.6" y="128.4" width="18.7" height="3.1"/><rect x="112.6" y="131.0" width="18.7" height="3.1"/><rect x="112.6" y="133.6" width="21.3" height="3.1"/><rect x="81.4" y="136.2" width="3.1" height="3.1"/><rect x="112.6" y="136.2" width="18.7" height="3.1"/><rect x="81.4" y="138.8" width="5.7" height="3.1"/><rect x="112.6" y="138.8" width="18.7" height="3.1"/><rect x="81.4" y="141.4" width="8.3" height="3.1"/><rect x="112.6" y="141.4" width="18.7" height="3.1"/><rect x="81.4" y="144.0" width="10.9" height="3.1"/><rect x="110.0" y="144.0" width="21.3" height="3.1"/><rect x="81.4" y="146.6" width="13.5" height="3.1"/><rect x="104.8" y="146.6" width="26.5" height="3.1"/><rect x="81.4" y="149.2" width="49.9" height="3.1"/><rect x="84.0" y="151.8" width="47.3" height="3.1"/><rect x="84.0" y="154.4" width="44.7" height="3.1"/><rect x="86.6" y="157.0" width="39.5" height="3.1"/><g opacity="1"><rect x="86.6" y="159.6" width="10.9" height="3.1"/><rect x="110.0" y="159.6" width="8.3" height="3.1"/><rect x="86.6" y="162.2" width="8.3" height="3.1"/><rect x="110.0" y="162.2" width="8.3" height="3.1"/><rect x="86.6" y="164.8" width="8.3" height="3.1"/><rect x="84.0" y="167.4" width="10.9" height="3.1"/><animate attributeName="opacity" values="1;1;0;0" keyTimes="0;0.49;0.5;1" dur="0.34s" repeatCount="indefinite"/></g><g opacity="0"><rect x="86.6" y="159.6" width="8.3" height="3.1"/><rect x="110.0" y="159.6" width="13.5" height="3.1"/><rect x="86.6" y="162.2" width="8.3" height="3.1"/><rect x="110.0" y="162.2" width="10.9" height="3.1"/><rect x="110.0" y="164.8" width="8.3" height="3.1"/><rect x="107.4" y="167.4" width="10.9" height="3.1"/><animate attributeName="opacity" values="0;0;1;1" keyTimes="0;0.49;0.5;1" dur="0.34s" repeatCount="indefinite"/></g></g><g fill="#ecb978" opacity="0"><path d="M 119 121 L 125 110 L 131 121 Z"/><path d="M 133 121 L 139 110 L 145 121 Z"/><path d="M 147 121 L 153 110 L 159 121 Z"/><animate attributeName="opacity" dur="9.0s" repeatCount="indefinite" keyTimes="0;0.156;0.216;1" values="0;0;1;1"/></g></g>
</svg>