<svg xmlns="http://www.w3.org/2000/svg" width="840" height="220" viewBox="0 0 840 220" role="img" aria-label="Pixel-art animado: dino correndo e pulando cactos, acelerando e evoluindo de cinza para âmbar">
<defs><style>text{font-family:ui-monospace,'SFMono-Regular',Menlo,'Courier New',monospace;}</style></defs>
<rect x="2" y="2" width="836" height="216" rx="16" fill="#0f0f11" stroke="#ffffff" stroke-opacity="0.08"/>
<text x="28" y="36" fill="#8a857b" font-size="14" letter-spacing="2">runtime :: joão.exe</text>
<text x="700" y="40" fill="#8a857b" font-size="14" letter-spacing="2">HI</text>
<text x="812" y="40" fill="#ecb978" font-size="14" letter-spacing="2" text-anchor="end" opacity="0">00128<animate attributeName="opacity" dur="8.0s" repeatCount="indefinite" calcMode="discrete" keyTimes="0.0000;0.1667;0.3333;0.5000;0.6667;0.8333" values="1;0;0;0;0;0"/></text>
<text x="812" y="40" fill="#ecb978" font-size="14" letter-spacing="2" text-anchor="end" opacity="0">00256<animate attributeName="opacity" dur="8.0s" repeatCount="indefinite" calcMode="discrete" keyTimes="0.0000;0.1667;0.3333;0.5000;0.6667;0.8333" values="0;1;0;0;0;0"/></text>
<text x="812" y="40" fill="#ecb978" font-size="14" letter-spacing="2" text-anchor="end" opacity="0">00384<animate attributeName="opacity" dur="8.0s" repeatCount="indefinite" calcMode="discrete" keyTimes="0.0000;0.1667;0.3333;0.5000;0.6667;0.8333" values="0;0;1;0;0;0"/></text>
<text x="812" y="40" fill="#ecb978" font-size="14" letter-spacing="2" text-anchor="end" opacity="0">00512<animate attributeName="opacity" dur="8.0s" repeatCount="indefinite" calcMode="discrete" keyTimes="0.0000;0.1667;0.3333;0.5000;0.6667;0.8333" values="0;0;0;1;0;0"/></text>
<text x="812" y="40" fill="#ecb978" font-size="14" letter-spacing="2" text-anchor="end" opacity="0">00640<animate attributeName="opacity" dur="8.0s" repeatCount="indefinite" calcMode="discrete" keyTimes="0.0000;0.1667;0.3333;0.5000;0.6667;0.8333" values="0;0;0;0;1;0"/></text>
<text x="812" y="40" fill="#ecb978" font-size="14" letter-spacing="2" text-anchor="end" opacity="0">00777<animate attributeName="opacity" dur="8.0s" repeatCount="indefinite" calcMode="discrete" keyTimes="0.0000;0.1667;0.3333;0.5000;0.6667;0.8333" values="0;0;0;0;0;1"/></text>
<g opacity="0.1" fill="#ffffff"><ellipse cx="300" cy="70" rx="26" ry="9"/><ellipse cx="320" cy="65" rx="17" ry="8"/><ellipse cx="283" cy="68" rx="13" ry="7"/><animateTransform attributeName="transform" type="translate" from="40 0" to="-900 0" dur="26s" repeatCount="indefinite"/></g>
<g opacity="0.07" fill="#ffffff"><ellipse cx="620" cy="95" rx="26" ry="9"/><ellipse cx="640" cy="90" rx="17" ry="8"/><ellipse cx="603" cy="93" rx="13" ry="7"/><animateTransform attributeName="transform" type="translate" from="40 0" to="-900 0" dur="34s" repeatCount="indefinite"/></g>
<line x1="24" y1="170" x2="816" y2="170" stroke="#ffffff" stroke-opacity="0.18" stroke-width="2"/>
<line x1="24" y1="178" x2="816" y2="178" stroke="#8a857b" stroke-opacity="0.5" stroke-width="2" stroke-dasharray="3 17"><animate attributeName="stroke-dashoffset" from="0" to="-20" dur="0.4s" repeatCount="indefinite"/></line>
<g><rect x="-4" y="-34" width="8" height="34" rx="2" fill="#6b655b"/><rect x="-11" y="-24" width="5" height="14" rx="2" fill="#6b655b"/><rect x="6" y="-28" width="5" height="16" rx="2" fill="#6b655b"/><animateTransform attributeName="transform" type="translate" dur="8.0s" repeatCount="indefinite" keyTimes="0;0.050;0.450;1" values="820 170;820 170;-60 170;-60 170"/></g>
<g><rect x="-3" y="-29" width="7" height="29" rx="2" fill="#6b655b"/><rect x="-9" y="-20" width="4" height="12" rx="2" fill="#6b655b"/><rect x="5" y="-24" width="4" height="14" rx="2" fill="#6b655b"/><animateTransform attributeName="transform" type="translate" dur="8.0s" repeatCount="indefinite" keyTimes="0;0.460;0.720;1" values="820 170;820 170;-60 170;-60 170"/></g>
<g><rect x="-5" y="-39" width="9" height="39" rx="2" fill="#6b655b"/><rect x="-13" y="-28" width="6" height="16" rx="2" fill="#6b655b"/><rect x="7" y="-32" width="6" height="18" rx="2" fill="#6b655b"/><animateTransform attributeName="transform" type="translate" dur="8.0s" repeatCount="indefinite" keyTimes="0;0.730;0.910;1" values="820 170;820 170;-60 170;-60 170"/></g>
<g><animateTransform attributeName="transform" type="translate" dur="8.0s" repeatCount="indefinite" calcMode="spline" keyTimes="0.000;0.323;0.373;0.423;0.620;0.670;0.720;0.825;0.875;0.925;1.000" values="0 0;0 0;0 -52;0 0;0 0;0 -52;0 0;0 0;0 -52;0 0;0 0" keySplines="0 0 1 1;0 .55 .4 1;.6 0 1 .45;0 0 1 1;0 .55 .4 1;.6 0 1 .45;0 0 1 1;0 .55 .4 1;.6 0 1 .45;0 0 1 1"/><g fill="#6b655b"><animate attributeName="fill" dur="8.0s" repeatCount="indefinite" keyTimes="0;0.373;0.423;0.670;0.720;1" values="#6b655b;#6b655b;#E0A458;#E0A458;#ecb978;#ecb978"/><rect x="112.6" y="120.6" width="18.7" height="3.1"/><rect x="112.6" y="123.2" width="18.7" height="3.1"/><rect x="112.6" y="125.8" width="5.7" height="3.1"/><rect x="120.4" y="125.8" width="10.9" height="3.1"/><rect x="112.6" y="128.4" width="18.7" height="3.1"/><rect x="112.6" y="131.0" width="18.7" height="3.1"/><rect x="112.6" y="133.6" width="21.3" height="3.1"/><rect x="81.4" y="136.2" width="3.1" height="3.1"/><rect x="112.6" y="136.2" width="18.7" height="3.1"/><rect x="81.4" y="138.8" width="5.7" height="3.1"/><rect x="112.6" y="138.8" width="18.7" height="3.1"/><rect x="81.4" y="141.4" width="8.3" height="3.1"/><rect x="112.6" y="141.4" width="18.7" height="3.1"/><rect x="81.4" y="144.0" width="10.9" height="3.1"/><rect x="110.0" y="144.0" width="21.3" height="3.1"/><rect x="81.4" y="146.6" width="13.5" height="3.1"/><rect x="104.8" y="146.6" width="26.5" height="3.1"/><rect x="81.4" y="149.2" width="49.9" height="3.1"/><rect x="84.0" y="151.8" width="47.3" height="3.1"/><rect x="84.0" y="154.4" width="44.7" height="3.1"/><rect x="86.6" y="157.0" width="39.5" height="3.1"/><g opacity="1"><rect x="86.6" y="159.6" width="10.9" height="3.1"/><rect x="110.0" y="159.6" width="8.3" height="3.1"/><rect x="86.6" y="162.2" width="8.3" height="3.1"/><rect x="110.0" y="162.2" width="8.3" height="3.1"/><rect x="86.6" y="164.8" width="8.3" height="3.1"/><rect x="84.0" y="167.4" width="10.9" height="3.1"/><animate attributeName="opacity" values="1;1;0;0" keyTimes="0;0.49;0.5;1" dur="0.3s" repeatCount="indefinite"/></g><g opacity="0"><rect x="86.6" y="159.6" width="8.3" height="3.1"/><rect x="110.0" y="159.6" width="13.5" height="3.1"/><rect x="86.6" y="162.2" width="8.3" height="3.1"/><rect x="110.0" y="162.2" width="10.9" height="3.1"/><rect x="110.0" y="164.8" width="8.3" height="3.1"/><rect x="107.4" y="167.4" width="10.9" height="3.1"/><animate attributeName="opacity" values="0;0;1;1" keyTimes="0;0.49;0.5;1" dur="0.3s" repeatCount="indefinite"/></g></g><circle cx="124.7" cy="131.4" r="1.7" fill="#ecb978" opacity="0"><animate attributeName="opacity" dur="8.0s" repeatCount="indefinite" keyTimes="0;0.373;0.403;0.533;1" values="0;0;1;0;0"/><animateTransform attributeName="transform" type="translate" dur="8.0s" repeatCount="indefinite" keyTimes="0;0.373;0.533;1" values="0 0;0 0;0 -15;0 -15"/></circle><circle cx="106.8" cy="122.0" r="2.6" fill="#ecb978" opacity="0"><animate attributeName="opacity" dur="8.0s" repeatCount="indefinite" keyTimes="0;0.373;0.403;0.533;1" values="0;0;1;0;0"/><animateTransform attributeName="transform" type="translate" dur="8.0s" repeatCount="indefinite" keyTimes="0;0.373;0.533;1" values="0 0;0 0;0 -18;0 -18"/></circle><circle cx="103.5" cy="122.5" r="1.6" fill="#ecb978" opacity="0"><animate attributeName="opacity" dur="8.0s" repeatCount="indefinite" keyTimes="0;0.373;0.403;0.533;1" values="0;0;1;0;0"/><animateTransform attributeName="transform" type="translate" dur="8.0s" repeatCount="indefinite" keyTimes="0;0.373;0.533;1" values="0 0;0 0;0 -24;0 -24"/></circle><circle cx="100.8" cy="125.2" r="2.1" fill="#ecb978" opacity="0"><animate attributeName="opacity" dur="8.0s" repeatCount="indefinite" keyTimes="0;0.373;0.403;0.533;1" values="0;0;1;0;0"/><animateTransform attributeName="transform" type="translate" dur="8.0s" repeatCount="indefinite" keyTimes="0;0.373;0.533;1" values="0 0;0 0;0 -22;0 -22"/></circle><circle cx="124.5" cy="126.5" r="2.1" fill="#ecb978" opacity="0"><animate attributeName="opacity" dur="8.0s" repeatCount="indefinite" keyTimes="0;0.670;0.700;0.830;1" values="0;0;1;0;0"/><animateTransform attributeName="transform" type="translate" dur="8.0s" repeatCount="indefinite" keyTimes="0;0.670;0.830;1" values="0 0;0 0;0 -18;0 -18"/></circle><circle cx="123.0" cy="130.5" r="2.0" fill="#ecb978" opacity="0"><animate attributeName="opacity" dur="8.0s" repeatCount="indefinite" keyTimes="0;0.670;0.700;0.830;1" values="0;0;1;0;0"/><animateTransform attributeName="transform" type="translate" dur="8.0s" repeatCount="indefinite" keyTimes="0;0.670;0.830;1" values="0 0;0 0;0 -19;0 -19"/></circle><circle cx="123.2" cy="125.1" r="2.7" fill="#ecb978" opacity="0"><animate attributeName="opacity" dur="8.0s" repeatCount="indefinite" keyTimes="0;0.670;0.700;0.830;1" values="0;0;1;0;0"/><animateTransform attributeName="transform" type="translate" dur="8.0s" repeatCount="indefinite" keyTimes="0;0.670;0.830;1" values="0 0;0 0;0 -16;0 -16"/></circle><circle cx="112.8" cy="122.8" r="1.6" fill="#ecb978" opacity="0"><animate attributeName="opacity" dur="8.0s" repeatCount="indefinite" keyTimes="0;0.670;0.700;0.830;1" values="0;0;1;0;0"/><animateTransform attributeName="transform" type="translate" dur="8.0s" repeatCount="indefinite" keyTimes="0;0.670;0.830;1" values="0 0;0 0;0 -19;0 -19"/></circle></g>
</svg>